<svg width="24" height="24" viewBox="0 0 24 24" fill="none" xmlns="http://www.w3.org/2000/svg">
<path d="M7.5 2.25C7.91421 2.25 8.25 2.58579 8.25 3V3.25268C8.59376 3.25 8.96563 3.25 9.36867 3.25H14.6313C15.0344 3.25 15.4062 3.25 15.75 3.25268V3C15.75 2.58579 16.0858 2.25 16.5 2.25C16.9142 2.25 17.25 2.58579 17.25 3V3.30105C17.2617 3.30192 17.2733 3.3028 17.2849 3.30369C17.995 3.35849 18.5939 3.47256 19.1412 3.73593C20.0312 4.16421 20.7628 4.85155 21.2241 5.7066C21.5106 6.23768 21.6339 6.8187 21.6927 7.49857C21.75 8.16092 21.75 8.98128 21.75 10.0098V14.9902C21.75 16.0187 21.75 16.8391 21.6927 17.5014C21.6339 18.1813 21.5106 18.7623 21.2241 19.2934C20.7628 20.1485 20.0312 20.8358 19.1412 21.2641C18.5939 21.5274 17.995 21.6415 17.2849 21.6963C16.589 21.75 15.7249 21.75 14.6313 21.75H9.36866C8.2751 21.75 7.41104 21.75 6.71511 21.6963C6.00497 21.6415 5.40612 21.5274 4.85882 21.2641C3.96884 20.8358 3.2372 20.1485 2.77591 19.2934C2.48939 18.7623 2.3661 18.1813 2.30729 17.5014C2.24999 16.8391 2.24999 16.0187 2.25 14.9901V10.0099C2.24999 8.98131 2.24999 8.16093 2.30729 7.49857C2.3661 6.8187 2.48939 6.23768 2.77591 5.7066C3.2372 4.85155 3.96884 4.16421 4.85882 3.73593C5.40612 3.47256 6.00497 3.35849 6.71511 3.30369C6.72669 3.3028 6.73832 3.30192 6.75 3.30105V3C6.75 2.58579 7.08579 2.25 7.5 2.25ZM6.75 4.80581C6.17276 4.85552 5.80412 4.94568 5.50926 5.08757C4.89394 5.38367 4.40173 5.85219 4.09604 6.41881C3.9822 6.62983 3.90012 6.88433 3.8453 7.25H20.1547C20.0999 6.88433 20.0178 6.62983 19.904 6.41881C19.5983 5.85219 19.1061 5.38367 18.4907 5.08757C18.1959 4.94568 17.8272 4.85552 17.25 4.80581V5C17.25 5.41421 16.9142 5.75 16.5 5.75C16.0858 5.75 15.75 5.41421 15.75 5V4.75278C15.4076 4.75007 15.027 4.75 14.6 4.75H9.4C8.97303 4.75 8.5924 4.75007 8.25 4.75278V5C8.25 5.41421 7.91421 5.75 7.5 5.75C7.08579 5.75 6.75 5.41421 6.75 5V4.80581Z" fill="#287DCE"/>
</svg>
