<svg width="24" height="24" viewBox="0 0 24 24" fill="none" xmlns="http://www.w3.org/2000/svg">
<path d="M17.8307 4.25H6.16978C5.63561 4.24999 5.18966 4.24998 4.82534 4.27974C4.44541 4.31077 4.08861 4.37787 3.7513 4.54973C3.23386 4.81338 2.81338 5.23386 2.54973 5.75131C2.37787 6.08861 2.31077 6.44541 2.27974 6.82534C2.24998 7.18966 2.24999 7.6356 2.25 8.16977V15.8306C2.24999 16.3648 2.24998 16.8106 2.27974 17.1747C2.31078 17.5546 2.37791 17.9111 2.54973 18.2484C2.81317 18.7654 3.23344 19.1866 3.7513 19.4505C4.08837 19.6222 4.44487 19.6893 4.82433 19.7203C5.18816 19.75 5.63339 19.75 6.16645 19.75H17.8336C18.3666 19.75 18.8117 19.75 19.1753 19.7203C19.5547 19.6893 19.9109 19.6222 20.2479 19.4505C20.7649 19.187 21.1866 18.7662 21.4505 18.2484C21.6222 17.9114 21.6893 17.5552 21.7203 17.1758C21.75 16.8121 21.75 16.3671 21.75 15.834V8.16649C21.75 7.63341 21.75 7.18817 21.7203 6.82433C21.6893 6.44487 21.6222 6.08837 21.4505 5.75131C21.1864 5.23305 20.7645 4.81297 20.2479 4.54973C19.9107 4.37793 19.5543 4.31079 19.1745 4.27974C18.8105 4.24998 18.3648 4.24999 17.8307 4.25ZM4.43229 5.88624C4.52281 5.84012 4.66016 5.79823 4.94745 5.77476C5.24344 5.75058 5.62778 5.75 6.2002 5.75H17.8002C18.3726 5.75 18.7566 5.75059 19.0523 5.77476C19.3391 5.7982 19.4763 5.84006 19.5669 5.88624C19.8029 6.0065 19.9945 6.1979 20.114 6.43229C20.16 6.52263 20.2018 6.65973 20.2253 6.9465C20.2494 7.24198 20.25 7.62559 20.25 8.19691V8.25H3.75V8.2002C3.75 7.62778 3.75058 7.24344 3.77476 6.94745C3.79823 6.66016 3.84012 6.52281 3.88624 6.43229C4.00608 6.19709 4.19709 6.00608 4.43229 5.88624ZM6 14.25H10C10.4142 14.25 10.75 14.5858 10.75 15C10.75 15.4142 10.4142 15.75 10 15.75H6C5.58579 15.75 5.25 15.4142 5.25 15C5.25 14.5858 5.58579 14.25 6 14.25Z" fill="#287DCE"/>
</svg>
