<svg width="24" height="24" viewBox="0 0 24 24" fill="none" xmlns="http://www.w3.org/2000/svg">
<path d="M8.75 11.4286C8.75 9.94924 9.94924 8.75 11.4286 8.75C12.9079 8.75 14.1071 9.94924 14.1071 11.4286C14.1071 12.1672 13.8092 12.8347 13.3251 13.3201C12.8394 13.8071 12.1697 14.1071 11.4286 14.1071C9.94924 14.1071 8.75 12.9079 8.75 11.4286Z" fill="#287DCE"/>
<path d="M10.6804 2.10515C11.0814 1.8726 11.5365 1.75 12 1.75C12.4635 1.75 12.9186 1.8726 13.3196 2.10515L13.3212 2.10607L19.9323 5.90685C20.3332 6.13975 20.6657 6.4743 20.8968 6.8765C21.1278 7.27867 21.2495 7.73532 21.25 8.19922V15.8015C21.2495 16.2654 21.1278 16.7213 20.8968 17.1235C20.6657 17.5257 20.3332 17.8602 19.9323 18.0931L19.9294 18.0948L13.3212 21.8939L13.3195 21.8949C12.9185 22.1274 12.4635 22.25 12 22.25C11.5365 22.25 11.0815 22.1274 10.6805 21.8949L10.6788 21.8939L4.07064 18.0948L4.06774 18.0931C3.66678 17.8602 3.33431 17.5257 3.10324 17.1235C2.87218 16.7213 2.75047 16.2647 2.75 15.8008V8.19846C2.75047 7.73455 2.87218 7.27867 3.10324 6.8765C3.33431 6.4743 3.66678 6.13975 4.06774 5.90685L4.07064 5.90518L10.6804 2.10515ZM11.4286 7.25C9.12081 7.25 7.25 9.12081 7.25 11.4286C7.25 13.7363 9.12081 15.6071 11.4286 15.6071C12.3125 15.6071 13.133 15.3321 13.8081 14.8638L15.4689 16.5295C15.7613 16.8229 16.2362 16.8236 16.5295 16.5311C16.8229 16.2387 16.8236 15.7638 16.5311 15.4705L14.8679 13.8022C15.3337 13.1282 15.6071 12.3099 15.6071 11.4286C15.6071 9.12081 13.7363 7.25 11.4286 7.25Z" fill="#287DCE"/>
</svg>
