<svg xmlns="http://www.w3.org/2000/svg" viewBox="0 0 59.8 71.7">
  <defs>
    <style>
      .cls-1 {
        fill: #347bbf;
      }
    </style>
  </defs>
  <g id="Layer_2" data-name="Layer 2">
    <g id="Layer_1-2" data-name="Layer 1">
      <g>
        <path class="cls-1" d="M10.5,28.4c0-3.4-.1-6.3,0-9.3a19.4,19.4,0,0,1,38.8,0v9.3h5.4c3.4,0,5,1.8,5,5.1,0,11,.1,21.9,0,32.9,0,3.6-1.6,5.2-5.2,5.3H5.2C1.5,71.6,0,70,0,66V34.6c0-4.8,1.4-6.2,6.2-6.2Zm19,40.3c8,0,15.9-.1,23.9.1,2.6,0,3.4-1,3.4-3.5q-.1-15.3,0-30.6c0-2.6-.9-3.4-3.5-3.4H6.4c-2.7,0-3.5.9-3.5,3.5C3,45,3,55.2,2.9,65.3c0,2.7,1,3.5,3.5,3.4C14.1,68.6,21.8,68.7,29.5,68.7ZM46.3,28.2c0-3.7.2-7.1-.1-10.4-.5-6.9-5.4-12.4-12.3-14.2A16.1,16.1,0,0,0,16.5,9.9c-4.1,5.6-3,12-2.9,18.3Z"/>
        <circle class="cls-1" cx="11.7" cy="50.8" r="2.8"/>
        <circle class="cls-1" cx="23.8" cy="50.8" r="2.8"/>
        <circle class="cls-1" cx="35.9" cy="50.8" r="2.8"/>
        <circle class="cls-1" cx="48.1" cy="50.8" r="2.8"/>
      </g>
    </g>
  </g>
</svg>
