<svg width="20" height="20" viewBox="0 0 20 20" fill="none" xmlns="http://www.w3.org/2000/svg">
<path d="M14.75 6C14.75 4.52165 14.4205 3.09893 13.6431 2.02476C12.8425 0.918486 11.6131 0.25 10 0.25C8.38694 0.25 7.15751 0.918486 6.35689 2.02476C5.57951 3.09893 5.25 4.52165 5.25 6V7.25046H4.66957C4.13542 7.25045 3.68957 7.25044 3.32533 7.2802C2.94545 7.31123 2.58879 7.37835 2.25153 7.55019C1.73408 7.81384 1.31338 8.23454 1.04973 8.75198C0.877889 9.08925 0.810778 9.4459 0.77974 9.82579C0.749981 10.19 0.74999 10.6359 0.75 11.17V15.8309C0.74999 16.3651 0.749981 16.8109 0.77974 17.1751C0.810778 17.555 0.877889 17.9117 1.04973 18.2489C1.31339 18.7664 1.73408 19.1871 2.25153 19.4507C2.58879 19.6226 2.94545 19.6897 3.32533 19.7207C3.68956 19.7505 4.1354 19.7505 4.66955 19.7505H15.3305C15.8646 19.7505 16.3104 19.7505 16.6747 19.7207C17.0546 19.6897 17.4112 19.6226 17.7485 19.4507C18.2659 19.1871 18.6866 18.7664 18.9503 18.2489C19.1221 17.9117 19.1892 17.555 19.2203 17.1751C19.25 16.8109 19.25 16.3651 19.25 15.8309V11.17C19.25 10.6359 19.25 10.19 19.2203 9.82579C19.1892 9.4459 19.1221 9.08925 18.9503 8.75198C18.6866 8.23454 18.2659 7.81384 17.7485 7.55019C17.4112 7.37835 17.0546 7.31123 16.6747 7.2802C16.3104 7.25044 15.8646 7.25045 15.3304 7.25046H14.75V6ZM6.75 6C6.75 4.71693 7.0398 3.63964 7.57206 2.90418C8.08109 2.2008 8.85166 1.75 10 1.75C11.1483 1.75 11.9189 2.2008 12.4279 2.90418C12.9602 3.63964 13.25 4.71693 13.25 6V7.25046H6.75V6ZM10.75 13.25V13.75C10.75 14.1642 10.4142 14.5 10 14.5C9.58579 14.5 9.25 14.1642 9.25 13.75V13.25C9.25 12.8358 9.58579 12.5 10 12.5C10.4142 12.5 10.75 12.8358 10.75 13.25ZM14 12.5C14.4142 12.5 14.75 12.8358 14.75 13.25V13.75C14.75 14.1642 14.4142 14.5 14 14.5C13.5858 14.5 13.25 14.1642 13.25 13.75V13.25C13.25 12.8358 13.5858 12.5 14 12.5ZM6.75 13.25V13.75C6.75 14.1642 6.41421 14.5 6 14.5C5.58579 14.5 5.25 14.1642 5.25 13.75V13.25C5.25 12.8358 5.58579 12.5 6 12.5C6.41421 12.5 6.75 12.8358 6.75 13.25Z" fill="#287DCE"/>
</svg>
