<svg width="229" height="46" viewBox="0 0 229 46" fill="none" xmlns="http://www.w3.org/2000/svg">
<path d="M9.8 34H0.0500002C1 23.7 1.45 12.25 1.5 0.649997H11.3C10.5 10.9 9.9 19.75 9.8 34ZM28.7 34H18.25C16 29.2 13.2 24.7 10.7 20L18.2 9.05H28.8L20.45 20.1C23.1 24.8 25.95 29.4 28.7 34ZM49.5488 34V30.8L49.4488 30.7C47.3988 33.7 44.2988 34.6 40.6988 34.6C33.7488 34.6 31.7488 31.2 31.7488 27C31.7488 25.4 32.6488 14 32.6488 9.05H42.4488C42.2488 13.5 41.5488 17.95 41.5488 22.35C41.5488 24.75 42.3488 26.8 45.0988 26.8C47.6488 26.8 49.0488 24.8 49.5488 22.55C50.1988 19.75 50.2988 14 50.4488 9.05H60.1488C59.3488 17.35 58.9488 25.7 58.7488 34H49.5488ZM74.952 34H64.552C65.402 26.45 65.752 19 65.852 9.05H75.852C75.002 17.35 74.952 25.7 74.952 34ZM75.652 5.95H66.102L66.202 0.049999H75.902L75.652 5.95ZM101.47 9.4L101.92 16.8C99.8699 16.1 97.7199 15.6 95.5699 15.6C91.7199 15.6 89.2699 17.85 89.2699 21.75C89.2699 25.5 91.2699 27.45 95.0199 27.45C97.1199 27.45 99.2699 26.95 101.22 26.25L100.02 33.7C97.5699 34.3 95.0699 34.6 92.5699 34.6C84.4199 34.6 79.7699 30.2 79.7699 21.95C79.7699 19.3 80.4199 8.45 93.0199 8.45C96.2699 8.45 98.9199 8.75 101.47 9.4ZM115.611 34H105.861C106.811 23.7 107.261 12.25 107.311 0.649997H117.111C116.311 10.9 115.711 19.75 115.611 34ZM134.511 34H124.061C121.811 29.2 119.011 24.7 116.511 20L124.011 9.05H134.611L126.261 20.1C128.911 24.8 131.761 29.4 134.511 34Z" fill="#287DCE"/>
<path d="M146.509 45.4H136.609C137.659 33.55 138.359 21.65 138.359 9.75C142.859 9 147.309 8.45 152.909 8.45C163.109 8.45 166.509 14.7 166.509 21.5C166.509 27.95 162.959 34.6 155.759 34.6C152.509 34.6 149.459 33.55 146.909 31.5C146.759 36.15 146.509 40.8 146.509 45.4ZM147.809 15.8C147.509 17.7 147.309 19.65 147.309 21.6C147.309 24.5 148.709 27.8 152.109 27.8C155.659 27.8 157.009 24.1 157.009 21.15C157.009 17.55 155.159 15.25 151.459 15.25C150.209 15.25 149.009 15.5 147.809 15.8ZM172.615 16.1L173.615 10C177.565 9.1 181.565 8.45 185.415 8.45C193.315 8.45 195.915 11.1 195.915 15.25C195.915 16.5 195.065 29 195.065 34H185.465C185.865 30.3 186.015 26.55 186.215 22.85C184.365 24.15 178.615 24.35 178.615 27.3C178.615 28.85 180.015 29.3 181.365 29.3C182.265 29.3 183.165 29.15 184.015 28.85L182.365 34.3C181.015 34.5 179.715 34.6 178.365 34.6C169.215 34.6 169.115 28 169.115 27.45C169.115 16.9 186.165 20.15 186.165 15.75C186.165 14.1 184.415 13.75 183.065 13.75C179.565 13.75 175.865 14.9 172.615 16.1ZM207.484 34.5L198.934 9.05H208.634C210.084 14.9 212.084 20.6 212.784 26.25H212.884C214.384 20.55 216.784 14.85 218.984 9.05H228.434L216.384 36.75C214.034 42.1 212.084 45.85 204.384 45.85C202.384 45.85 200.384 45.6 198.384 45.15L197.384 38C198.884 38.6 200.534 39.05 202.134 39.05C205.134 39.05 206.734 37.2 207.484 34.5Z" fill="#00AF50"/>
</svg>
